# xmcd CD database file
#
# Track frame offsets:
#	182
#	2232
#	20022
#	46067
#	64282
#	81112
#	101007
#	113265
#	131782
#
# Disc length: 2039 seconds
#
# Revision: 1
# Processed by: cddbd v1.5.1PL0 Copyright (c) Steve Scherf et al.
# Submitted via: CDex 1.51
#
DISCID=6d07f509
DTITLE=Paul Williams and Friends - In Memory Of Robert Johnson
DYEAR=1900
DGENRE=Blues
TTITLE0=Spoken Introduction
TTITLE1=Terraplane Blues (Version #1)
TTITLE2=Crossroads Blues
TTITLE3=Kind Hearted Woman Blues
TTITLE4=If I Had Possession Over Judgement Day
TTITLE5=Rambling Blues
TTITLE6=When You Got A Good Friend
TTITLE7=Come On In My Kitchen
TTITLE8=Terraplane Blues (Version #2)
EXTD=
EXTT0=
EXTT1=
EXTT2=
EXTT3=
EXTT4=
EXTT5=
EXTT6=
EXTT7=
EXTT8=
PLAYORDER=
